<svg xmlns="http://www.w3.org/2000/svg" viewBox="0 0 32 32">
  <defs>
    <linearGradient id="g1h" x1="0%" y1="0%" x2="100%" y2="100%">
      <stop offset="0%" stop-color="#0078d4"/>
      <stop offset="100%" stop-color="#005a9e"/>
    </linearGradient>
  </defs>
  <!-- Geometric - Azure blue (Microsoft brand) -->
  <path d="M16 2C8.268 2 2 8.268 2 16s6.268 14 14 14c3.866 0 7.389-1.568 9.928-4.1l-3.535-3.536A9.002 9.002 0 0116 25c-4.97 0-9-4.03-9-9s4.03-9 9-9c2.29 0 4.38.857 5.971 2.268l3.464-3.639C22.993 3.352 19.66 2 16 2z" fill="url(#g1h)"/>
  <path d="M20 10l-4 6 4 6h4l-4-6 4-6h-4z" fill="url(#g1h)"/>
  <path d="M24 10l4 6-4 6h4l4-6-4-6h-4z" fill="url(#g1h)" opacity="0.5"/>
</svg>
